<?xml version="1.0" encoding="UTF-8"?>
<!-- Generator: Adobe Illustrator 19.0.0, SVG Export Plug-In . SVG Version: 6.00 Build 0)  -->
<svg version="1.1" id="图层_1" xmlns="http://www.w3.org/2000/svg" xmlns:xlink="http://www.w3.org/1999/xlink" x="0px" y="0px" viewBox="0 0 162 200" style="enable-background:new 0 0 162 200;" xml:space="preserve">
<style type="text/css">
	.st0{fill:#374b55;}
</style>
<g>
	<rect x="22.6" y="-2.9" transform="matrix(0.9354 0.3535 -0.3535 0.9354 22.6624 -4.289)" class="st0" width="1" height="125.6"/>
	
		<rect x="-12.1" y="72.6" transform="matrix(0.2234 0.9747 -0.9747 0.2234 119.1562 -3.446)" class="st0" width="147.6" height="1"/>
	<rect x="-1.3" y="131.3" transform="matrix(0.9467 0.3221 -0.3221 0.9467 44.5777 -5.7167)" class="st0" width="81.7" height="1"/>
	<rect x="-11.5" y="158.2" transform="matrix(0.826 0.5637 -0.5637 0.826 99.8243 -5.9463)" class="st0" width="142" height="1"/>
	<rect x="64.7" y="171.4" transform="matrix(0.5967 0.8024 -0.8024 0.5967 177.5126 -9.5022)" class="st0" width="67" height="1"/>
	
		<rect x="139.3" y="56.9" transform="matrix(0.9543 0.2989 -0.2989 0.9543 45.0923 -35.8789)" class="st0" width="1" height="145.1"/>
	
		<rect x="119.4" y="43.2" transform="matrix(0.7129 0.7012 -0.7012 0.7129 106.3612 -54.5958)" class="st0" width="1" height="118.8"/>
	<rect x="85.5" y="49.6" transform="matrix(0.965 0.2623 -0.2623 0.965 17.4888 -30.8248)" class="st0" width="77.3" height="1"/>
	
		<rect x="82.1" y="39.8" transform="matrix(0.9966 8.199525e-02 -8.199525e-02 0.9966 7.8603 -6.4586)" class="st0" width="1" height="105.4"/>
	<rect x="37.6" y="20" transform="matrix(0.7314 0.6819 -0.6819 0.7314 31.7527 -39.5437)" class="st0" width="56.9" height="1"/>
	<rect x="43.4" y="21" transform="matrix(0.6747 0.7381 -0.7381 0.6747 72.8261 -6.5983)" class="st0" width="1" height="116.6"/>
	
		<rect x="21.6" y="118.8" transform="matrix(0.1933 0.9811 -0.9811 0.1933 199.8086 -4.3444)" class="st0" width="161.8" height="1"/>
</g>
</svg>