<?xml version="1.0" encoding="UTF-8"?>
<!-- Generator: Adobe Illustrator 17.0.0, SVG Export Plug-In . SVG Version: 6.00 Build 0)  -->
<!DOCTYPE svg PUBLIC "-//W3C//DTD SVG 1.1//EN" "http://www.w3.org/Graphics/SVG/1.1/DTD/svg11.dtd">
<svg version="1.1" id="Layer_1" xmlns="http://www.w3.org/2000/svg" xmlns:xlink="http://www.w3.org/1999/xlink" x="0px" y="0px" width="320px" height="160px" viewBox="0 0 320 160" enable-background="new 0 0 320 160" xml:space="preserve">
<g display="none">
	<g display="inline">
		<path fill="#656464" d="M61.898,64.345h4.114v4.533c1.101-1.844,2.17-3.196,3.208-4.06c1.044-0.86,2.2-1.292,3.475-1.292    c1.273,0,2.557,0.352,3.853,1.056l-2.123,3.416c-0.587-0.357-1.194-0.532-1.822-0.532c-1.216,0-2.36,0.628-3.441,1.884    c-1.081,1.257-1.873,2.871-2.385,4.853C66.27,76.185,66.012,79.785,66.012,85v10.593h-4.114V64.345z"/>
		<path fill="#656464" d="M79.666,80.175c0-4.591,1.578-8.513,4.737-11.768c3.159-3.254,7.002-4.881,11.535-4.881    c4.528,0,8.374,1.628,11.53,4.881c3.157,3.255,4.735,7.159,4.735,11.71c0,4.554-1.556,8.443-4.674,11.679    c-3.118,3.236-6.974,4.856-11.565,4.856c-4.59,0-8.453-1.62-11.59-4.856C81.236,88.559,79.666,84.687,79.666,80.175z     M108.145,80.231c0-3.452-1.208-6.44-3.621-8.971c-2.411-2.529-5.275-3.795-8.586-3.795c-3.315,0-6.173,1.266-8.563,3.795    c-2.392,2.531-3.59,5.539-3.59,9.032c0,3.494,1.157,6.454,3.47,8.883c2.319,2.434,5.188,3.649,8.622,3.649    c3.433,0,6.334-1.226,8.711-3.679C106.96,86.699,108.145,83.726,108.145,80.231z"/>
		<path fill="#656464" d="M115.441,64.345h4.179l9.534,23.712l10.06-23.712h0.704l10.004,23.712l9.711-23.712h4.235l-13.594,32.306    h-0.766l-9.943-23.417l-10.001,23.417h-0.768L115.441,64.345z"/>
		<path fill="#656464" d="M167.987,64.345h4.061v31.248h-4.061V64.345z"/>
		<path fill="#656464" d="M171.23,49.583l2.874,2.87l-4.436,4.43l-2.869-2.867L171.23,49.583z"/>
		<path fill="#656464" d="M180.343,64.345h4.06v5.59c3.218-4.275,7.12-6.409,11.714-6.409c2.35,0,4.467,0.635,6.352,1.91    c1.885,1.276,3.216,2.94,4.001,5c0.785,2.06,1.178,5.09,1.178,9.091v16.066h-4.004v-14.89c0-3.648-0.166-6.117-0.498-7.411    c-0.335-1.294-0.845-2.396-1.53-3.296c-0.686-0.899-1.557-1.59-2.619-2.059c-1.058-0.472-2.344-0.709-3.856-0.709    c-1.508,0-2.991,0.374-4.439,1.119c-1.452,0.75-2.689,1.787-3.707,3.12c-1.02,1.334-1.709,2.704-2.061,4.117    c-0.353,1.414-0.529,4.259-0.529,8.534v11.475h-4.06V64.345z"/>
		<path fill="#656464" d="M243.598,64.345h4.058v24.127c0,4.273-0.372,7.411-1.119,9.414c-0.744,1.999-1.821,3.668-3.234,4.998    c-1.414,1.336-3.12,2.36-5.121,3.065c-1.999,0.706-4.197,1.055-6.591,1.055c-8.161,0-13.532-3.256-16.12-9.764h4.35    c2.276,4.078,6.146,6.12,11.596,6.12c2.626,0,4.912-0.51,6.854-1.531c1.943-1.017,3.313-2.325,4.12-3.913    c0.802-1.587,1.206-4.069,1.206-7.441v-1.355c-1.611,2.001-3.512,3.492-5.708,4.473c-2.201,0.981-4.508,1.468-6.946,1.468    c-4.548,0-8.333-1.549-11.352-4.65c-3.024-3.099-4.533-6.743-4.533-10.942c0-4.353,1.609-8.1,4.827-11.238    c3.215-3.137,7.108-4.704,11.678-4.704s8.58,2.077,12.035,6.236V64.345z M243.772,79.468c0-3.409-1.154-6.275-3.469-8.59    c-2.314-2.314-5.182-3.472-8.592-3.472c-3.609,0-6.609,1.246-9.003,3.736c-2.394,2.494-3.586,5.345-3.586,8.563    c0,3.218,1.155,5.953,3.468,8.206c2.316,2.257,5.276,3.386,8.882,3.386c3.615,0,6.566-1.103,8.861-3.297    C242.626,85.806,243.772,82.958,243.772,79.468z"/>
		<path fill="#0FA599" d="M255.897,53.342h4.237v42.251h-4.237V53.342z"/>
		<path fill="#0FA599" d="M267.956,74.644c0-4.077,0.981-7.847,2.942-11.297c1.964-3.454,4.648-6.157,8.062-8.119    c3.414-1.963,7.13-2.946,11.152-2.946c4.019,0,7.767,0.975,11.24,2.915c3.468,1.943,6.198,4.627,8.177,8.061    c1.979,3.432,2.97,7.16,2.97,11.178c0,4.023-0.98,7.751-2.943,11.181c-1.962,3.432-4.657,6.133-8.089,8.089    c-3.432,1.964-7.158,2.945-11.178,2.945c-4.022,0-7.759-0.971-11.208-2.914c-3.455-1.942-6.172-4.619-8.152-8.031    C268.947,82.291,267.956,78.605,267.956,74.644z M308.086,74.465c0-5.059-1.756-9.332-5.264-12.827    c-3.512-3.487-7.739-5.233-12.682-5.233c-5.061,0-9.288,1.753-12.679,5.264c-3.394,3.512-5.087,7.788-5.087,12.829    c0,5.04,1.741,9.305,5.235,12.798c3.489,3.492,7.708,5.239,12.648,5.239c4.947,0,9.152-1.71,12.622-5.122    C306.354,83.997,308.086,79.686,308.086,74.465z"/>
		<path fill="#656464" d="M55.93,70.482h-3.899c0.061,0.636,0.093,1.286,0.093,1.942c0,0.655-0.032,1.302-0.093,1.944    c-0.981,10.307-9.685,18.402-20.245,18.402c-11.211,0-20.342-9.132-20.342-20.346c0-11.213,9.131-20.34,20.342-20.34    c7.053,0,13.267,3.606,16.922,9.063h4.512c-4.063-7.693-12.148-12.946-21.434-12.946c-13.355,0-24.226,10.866-24.226,24.222    c0,13.356,10.871,24.228,24.226,24.228c13.356,0,24.225-10.871,24.225-24.228C56.011,71.768,55.978,71.124,55.93,70.482z"/>
		<rect x="31.786" y="70.482" fill="#656464" width="22.281" height="3.886"/>
	</g>
</g>
<g>
	<g>
		<path fill="#FFFFFF" d="M61.447,64.121h4.129v4.549c1.105-1.85,2.177-3.207,3.22-4.075c1.048-0.863,2.208-1.296,3.488-1.296    c1.278,0,2.566,0.352,3.867,1.06l-2.13,3.426c-0.589-0.358-1.198-0.533-1.829-0.533c-1.22,0-2.369,0.629-3.453,1.89    c-1.085,1.261-1.88,2.881-2.393,4.87c-0.511,1.991-0.769,5.602-0.769,10.837v10.632h-4.129V64.121z"/>
		<path fill="#FFFFFF" d="M79.279,80.008c0-4.608,1.584-8.544,4.754-11.811c3.17-3.265,7.028-4.898,11.577-4.898    c4.545,0,8.404,1.633,11.572,4.898c3.168,3.267,4.752,7.185,4.752,11.752c0,4.571-1.562,8.474-4.691,11.722    c-3.13,3.248-6.999,4.874-11.607,4.874c-4.607,0-8.483-1.625-11.632-4.874C80.855,88.422,79.279,84.535,79.279,80.008z     M107.861,80.064c0-3.464-1.212-6.463-3.634-9.004c-2.42-2.537-5.294-3.808-8.617-3.808c-3.327,0-6.195,1.271-8.594,3.808    c-2.4,2.541-3.603,5.56-3.603,9.066c0,3.506,1.161,6.476,3.483,8.915c2.328,2.442,5.206,3.663,8.653,3.663    c3.446,0,6.357-1.231,8.742-3.693C106.671,86.555,107.861,83.572,107.861,80.064z"/>
		<path fill="#FFFFFF" d="M115.183,64.121h4.194l9.568,23.798l10.096-23.798h0.707l10.04,23.798l9.746-23.798h4.251l-13.643,32.423    h-0.769l-9.979-23.502l-10.037,23.502h-0.771L115.183,64.121z"/>
		<path fill="#FFFFFF" d="M167.919,64.121h4.076v31.361h-4.076V64.121z"/>
		<path fill="#FFFFFF" d="M171.173,49.306l2.884,2.881l-4.452,4.446l-2.879-2.878L171.173,49.306z"/>
		<path fill="#FFFFFF" d="M180.32,64.121h4.075v5.609c3.229-4.29,7.146-6.432,11.756-6.432c2.359,0,4.483,0.637,6.375,1.917    c1.892,1.28,3.227,2.951,4.015,5.018c0.787,2.067,1.182,5.109,1.182,9.124v16.124h-4.018V80.538c0-3.661-0.166-6.138-0.5-7.439    c-0.336-1.298-0.848-2.404-1.536-3.307c-0.689-0.903-1.563-1.596-2.629-2.067c-1.062-0.473-2.352-0.711-3.87-0.711    c-1.514,0-3.002,0.375-4.455,1.123c-1.457,0.752-2.699,1.793-3.721,3.131c-1.023,1.34-1.715,2.714-2.068,4.132    c-0.355,1.419-0.531,4.275-0.531,8.566v11.516h-4.075V64.121z"/>
		<path fill="#FFFFFF" d="M243.803,64.121h4.073v24.214c0,4.289-0.373,7.438-1.123,9.448c-0.746,2.006-1.828,3.68-3.246,5.016    c-1.419,1.341-3.131,2.368-5.139,3.076c-2.006,0.707-4.212,1.059-6.615,1.059c-8.19,0-13.581-3.268-16.178-9.8h4.366    c2.284,4.094,6.168,6.143,11.638,6.143c2.636,0,4.93-0.513,6.879-1.537c1.95-1.021,3.325-2.333,4.135-3.928    c0.805-1.592,1.21-4.084,1.21-7.467v-1.36c-1.617,2.008-3.525,3.505-5.729,4.489c-2.209,0.984-4.525,1.475-6.971,1.475    c-4.565,0-8.363-1.555-11.393-4.667c-3.035-3.11-4.549-6.768-4.549-10.982c0-4.369,1.615-8.129,4.844-11.28    c3.227-3.147,7.134-4.72,11.72-4.72s8.611,2.085,12.078,6.258V64.121z M243.978,79.299c0-3.422-1.158-6.298-3.481-8.622    c-2.322-2.323-5.201-3.484-8.623-3.484c-3.622,0-6.633,1.251-9.036,3.749c-2.402,2.503-3.599,5.365-3.599,8.594    c0,3.231,1.159,5.975,3.481,8.235c2.325,2.267,5.296,3.399,8.914,3.399c3.628,0,6.589-1.106,8.893-3.308    C242.827,85.659,243.978,82.801,243.978,79.299z"/>
		<path fill="#FFFFFF" d="M256.146,53.078h4.252v42.404h-4.252V53.078z"/>
		<path fill="#FFFFFF" d="M268.249,74.458c0-4.091,0.984-7.875,2.953-11.339c1.971-3.466,4.665-6.178,8.091-8.147    c3.427-1.97,7.156-2.957,11.192-2.957c4.034,0,7.795,0.978,11.28,2.925c3.481,1.951,6.22,4.645,8.207,8.09    c1.986,3.444,2.98,7.187,2.98,11.22c0,4.038-0.984,7.779-2.953,11.222c-1.969,3.444-4.673,6.154-8.119,8.117    c-3.444,1.971-7.184,2.956-11.219,2.956c-4.037,0-7.787-0.975-11.249-2.924c-3.467-1.949-6.194-4.635-8.181-8.059    C269.243,82.131,268.249,78.432,268.249,74.458z M308.524,74.278c0-5.077-1.763-9.367-5.283-12.873    c-3.525-3.499-7.767-5.253-12.728-5.253c-5.079,0-9.321,1.76-12.725,5.284c-3.406,3.524-5.106,7.816-5.106,12.874    s1.747,9.339,5.254,12.845c3.502,3.506,7.736,5.258,12.694,5.258c4.964,0,9.185-1.716,12.668-5.141    C306.785,83.844,308.524,79.516,308.524,74.278z"/>
		<path fill="#FFFFFF" d="M55.457,70.28h-3.914c0.061,0.639,0.093,1.291,0.093,1.949c0,0.658-0.032,1.308-0.093,1.951    c-0.984,10.344-9.72,18.468-20.318,18.468c-11.251,0-20.416-9.165-20.416-20.419c0-11.253,9.164-20.414,20.416-20.414    c7.079,0,13.315,3.62,16.983,9.096h4.529c-4.077-7.721-12.192-12.992-21.512-12.992c-13.403,0-24.313,10.905-24.313,24.31    c0,13.404,10.91,24.315,24.313,24.315c13.405,0,24.312-10.911,24.312-24.315C55.538,71.571,55.505,70.924,55.457,70.28z"/>
		<rect x="31.226" y="70.28" fill="#FFFFFF" width="22.362" height="3.9"/>
	</g>
</g>
</svg>